HIERARCHY
ROOT mixamorig:Hips
{
	OFFSET 0.000000 201.639420 0.000000
	CHANNELS 6 Xposition Yposition Zposition Xrotation Yrotation Zrotation
	JOINT mixamorig:Spine
	{
		OFFSET 0.006200 19.524994 -2.481800
		CHANNELS 3 Xrotation Yrotation Zrotation
		JOINT mixamorig:Spine1
		{
			OFFSET -0.000900 22.835007 -2.825400
			CHANNELS 3 Xrotation Yrotation Zrotation
			JOINT mixamorig:Spine2
			{
				OFFSET -0.020600 26.552490 -3.193300
				CHANNELS 3 Xrotation Yrotation Zrotation
				JOINT mixamorig:Neck
				{
					OFFSET -0.060000 30.701813 1.352200
					CHANNELS 3 Xrotation Yrotation Zrotation
					JOINT mixamorig:Head
					{
						OFFSET -0.087200 22.547607 3.670900
						CHANNELS 3 Xrotation Yrotation Zrotation
						JOINT mixamorig:HeadTop_End
						{
							OFFSET -0.830600 40.355194 7.893500
							CHANNELS 3 Xrotation Yrotation Zrotation
							End Site
							{
								OFFSET 0.000000 30.592346 0.000000
							}
						}
						JOINT mixamorig:RightEye
						{
							OFFSET -6.302100 18.118591 16.197100
							CHANNELS 3 Xrotation Yrotation Zrotation
							End Site
							{
								OFFSET 0.000000 30.592346 0.000000
							}
						}
						JOINT mixamorig:LeftEye
						{
							OFFSET 6.741500 18.382690 16.401899
							CHANNELS 3 Xrotation Yrotation Zrotation
							End Site
							{
								OFFSET 0.000000 30.592346 0.000000
							}
						}
					}
				}
				JOINT mixamorig:LeftShoulder
				{
					OFFSET 11.924900 18.230499 1.425400
					CHANNELS 3 Xrotation Yrotation Zrotation
					JOINT mixamorig:LeftArm
					{
						OFFSET 25.435989 -0.697632 -5.229300
						CHANNELS 3 Xrotation Yrotation Zrotation
						JOINT mixamorig:LeftForeArm
						{
							OFFSET 54.684776 0.000000 0.000000
							CHANNELS 3 Xrotation Yrotation Zrotation
							JOINT mixamorig:LeftHand
							{
								OFFSET 55.098175 0.000000 0.000000
								CHANNELS 3 Xrotation Yrotation Zrotation
								JOINT mixamorig:LeftHandMiddle1
								{
									OFFSET 23.369751 0.000000 0.000000
									CHANNELS 3 Xrotation Yrotation Zrotation
									JOINT mixamorig:LeftHandMiddle2
									{
										OFFSET 6.378677 0.000000 0.000000
										CHANNELS 3 Xrotation Yrotation Zrotation
										JOINT mixamorig:LeftHandMiddle3
										{
											OFFSET 6.148331 0.000000 0.000000
											CHANNELS 3 Xrotation Yrotation Zrotation
											JOINT mixamorig:LeftHandMiddle4
											{
												OFFSET 6.582504 0.000000 0.000000
												CHANNELS 3 Xrotation Yrotation Zrotation
												End Site
												{
													OFFSET -1.168900 6.395691 1.028606
												}
											}
										}
									}
								}
								JOINT mixamorig:LeftHandThumb1
								{
									OFFSET 7.235672 -3.848206 5.434273
									CHANNELS 3 Xrotation Yrotation Zrotation
									JOINT mixamorig:LeftHandThumb2
									{
										OFFSET 6.568451 -3.792297 3.792300
										CHANNELS 3 Xrotation Yrotation Zrotation
										JOINT mixamorig:LeftHandThumb3
										{
											OFFSET 6.063080 -3.500519 3.500518
											CHANNELS 3 Xrotation Yrotation Zrotation
											JOINT mixamorig:LeftHandThumb4
											{
												OFFSET 4.793182 -2.767334 2.767349
												CHANNELS 3 Xrotation Yrotation Zrotation
												End Site
												{
													OFFSET 0.101639 6.054260 1.275483
												}
											}
										}
									}
								}
								JOINT mixamorig:LeftHandIndex1
								{
									OFFSET 23.101074 -0.309540 4.992809
									CHANNELS 3 Xrotation Yrotation Zrotation
									JOINT mixamorig:LeftHandIndex2
									{
										OFFSET 6.226883 0.000000 0.000000
										CHANNELS 3 Xrotation Yrotation Zrotation
										JOINT mixamorig:LeftHandIndex3
										{
											OFFSET 6.094330 0.000000 0.000000
											CHANNELS 3 Xrotation Yrotation Zrotation
											JOINT mixamorig:LeftHandIndex4
											{
												OFFSET 5.482605 0.000000 0.000000
												CHANNELS 3 Xrotation Yrotation Zrotation
												End Site
												{
													OFFSET -1.427902 5.233032 0.797164
												}
											}
										}
									}
								}
								JOINT mixamorig:LeftHandRing1
								{
									OFFSET 22.299240 0.021149 -3.964172
									CHANNELS 3 Xrotation Yrotation Zrotation
									JOINT mixamorig:LeftHandRing2
									{
										OFFSET 6.321869 0.000000 0.000000
										CHANNELS 3 Xrotation Yrotation Zrotation
										JOINT mixamorig:LeftHandRing3
										{
											OFFSET 5.899796 0.000000 0.000000
											CHANNELS 3 Xrotation Yrotation Zrotation
											JOINT mixamorig:LeftHandRing4
											{
												OFFSET 6.517899 0.000000 0.000000
												CHANNELS 3 Xrotation Yrotation Zrotation
												End Site
												{
													OFFSET -1.637299 6.232208 0.980890
												}
											}
										}
									}
								}
								JOINT mixamorig:LeftHandPinky1
								{
									OFFSET 20.463791 -0.302338 -8.562233
									CHANNELS 3 Xrotation Yrotation Zrotation
									JOINT mixamorig:LeftHandPinky2
									{
										OFFSET 6.908646 0.000000 0.000000
										CHANNELS 3 Xrotation Yrotation Zrotation
										JOINT mixamorig:LeftHandPinky3
										{
											OFFSET 4.622849 0.000000 0.000000
											CHANNELS 3 Xrotation Yrotation Zrotation
											JOINT mixamorig:LeftHandPinky4
											{
												OFFSET 5.216080 0.000000 0.000000
												CHANNELS 3 Xrotation Yrotation Zrotation
												End Site
												{
													OFFSET -0.606308 5.116241 0.814926
												}
											}
										}
									}
								}
							}
						}
					}
				}
				JOINT mixamorig:RightShoulder
				{
					OFFSET -12.001300 18.284088 1.348900
					CHANNELS 3 Xrotation Yrotation Zrotation
					JOINT mixamorig:RightArm
					{
						OFFSET -25.308500 -0.751312 -5.164599
						CHANNELS 3 Xrotation Yrotation Zrotation
						JOINT mixamorig:RightForeArm
						{
							OFFSET -54.684429 0.000000 0.000000
							CHANNELS 3 Xrotation Yrotation Zrotation
							JOINT mixamorig:RightHand
							{
								OFFSET -55.150291 0.000000 0.000000
								CHANNELS 3 Xrotation Yrotation Zrotation
								JOINT mixamorig:RightHandMiddle1
								{
									OFFSET -23.317566 0.000000 0.000000
									CHANNELS 3 Xrotation Yrotation Zrotation
									JOINT mixamorig:RightHandMiddle2
									{
										OFFSET -6.378403 0.000000 0.000000
										CHANNELS 3 Xrotation Yrotation Zrotation
										JOINT mixamorig:RightHandMiddle3
										{
											OFFSET -6.148193 0.000000 0.000000
											CHANNELS 3 Xrotation Yrotation Zrotation
											JOINT mixamorig:RightHandMiddle4
											{
												OFFSET -6.583389 0.000000 0.000000
												CHANNELS 3 Xrotation Yrotation Zrotation
												End Site
												{
													OFFSET 1.171692 6.395905 1.029786
												}
											}
										}
									}
								}
								JOINT mixamorig:RightHandThumb1
								{
									OFFSET -7.190521 -3.860474 5.435846
									CHANNELS 3 Xrotation Yrotation Zrotation
									JOINT mixamorig:RightHandThumb2
									{
										OFFSET -6.567429 -3.791718 3.791708
										CHANNELS 3 Xrotation Yrotation Zrotation
										JOINT mixamorig:RightHandThumb3
										{
											OFFSET -6.062469 -3.500153 3.500166
											CHANNELS 3 Xrotation Yrotation Zrotation
											JOINT mixamorig:RightHandThumb4
											{
												OFFSET -4.792618 -2.767029 2.767022
												CHANNELS 3 Xrotation Yrotation Zrotation
												End Site
												{
													OFFSET -0.100327 6.053253 1.276754
												}
											}
										}
									}
								}
								JOINT mixamorig:RightHandIndex1
								{
									OFFSET -23.048981 -0.310791 4.992554
									CHANNELS 3 Xrotation Yrotation Zrotation
									JOINT mixamorig:RightHandIndex2
									{
										OFFSET -6.227539 0.000000 0.000000
										CHANNELS 3 Xrotation Yrotation Zrotation
										JOINT mixamorig:RightHandIndex3
										{
											OFFSET -6.095047 0.000000 0.000000
											CHANNELS 3 Xrotation Yrotation Zrotation
											JOINT mixamorig:RightHandIndex4
											{
												OFFSET -5.484772 0.000000 0.000000
												CHANNELS 3 Xrotation Yrotation Zrotation
												End Site
												{
													OFFSET 1.420593 5.237305 0.797056
												}
											}
										}
									}
								}
								JOINT mixamorig:RightHandRing1
								{
									OFFSET -22.246323 0.020569 -3.963762
									CHANNELS 3 Xrotation Yrotation Zrotation
									JOINT mixamorig:RightHandRing2
									{
										OFFSET -6.322128 0.000000 0.000000
										CHANNELS 3 Xrotation Yrotation Zrotation
										JOINT mixamorig:RightHandRing3
										{
											OFFSET -5.900024 0.000000 0.000000
											CHANNELS 3 Xrotation Yrotation Zrotation
											JOINT mixamorig:RightHandRing4
											{
												OFFSET -6.518356 0.000000 0.000000
												CHANNELS 3 Xrotation Yrotation Zrotation
												End Site
												{
													OFFSET 1.636398 6.232697 0.982186
												}
											}
										}
									}
								}
								JOINT mixamorig:RightHandPinky1
								{
									OFFSET -20.411011 -0.303314 -8.561701
									CHANNELS 3 Xrotation Yrotation Zrotation
									JOINT mixamorig:RightHandPinky2
									{
										OFFSET -6.907349 0.000000 0.000000
										CHANNELS 3 Xrotation Yrotation Zrotation
										JOINT mixamorig:RightHandPinky3
										{
											OFFSET -4.623840 0.000000 0.000000
											CHANNELS 3 Xrotation Yrotation Zrotation
											JOINT mixamorig:RightHandPinky4
											{
												OFFSET -5.218353 0.000000 0.000000
												CHANNELS 3 Xrotation Yrotation Zrotation
												End Site
												{
													OFFSET 0.602097 5.118835 0.816273
												}
											}
										}
									}
								}
							}
						}
					}
				}
			}
		}
	}
	JOINT mixamorig:LeftUpLeg
	{
		OFFSET 18.168400 -13.561905 -0.039000
		CHANNELS 3 Xrotation Yrotation Zrotation
		JOINT mixamorig:LeftLeg
		{
			OFFSET 0.577358 -80.825211 -3.695000
			CHANNELS 3 Xrotation Yrotation Zrotation
			JOINT mixamorig:LeftFoot
			{
				OFFSET -0.577356 -83.370262 -6.520700
				CHANNELS 3 Xrotation Yrotation Zrotation
				JOINT mixamorig:LeftToeBase
				{
					OFFSET 0.750401 -20.798306 25.135401
					CHANNELS 3 Xrotation Yrotation Zrotation
					JOINT mixamorig:LeftToe_End
					{
						OFFSET -0.000500 0.001200 19.917799
						CHANNELS 3 Xrotation Yrotation Zrotation
						End Site
						{
							OFFSET 0.000000 19.917805 0.000000
						}
					}
				}
			}
		}
	}
	JOINT mixamorig:RightUpLeg
	{
		OFFSET -18.162500 -13.585098 -0.041000
		CHANNELS 3 Xrotation Yrotation Zrotation
		JOINT mixamorig:RightLeg
		{
			OFFSET -0.595024 -80.945297 -3.631900
			CHANNELS 3 Xrotation Yrotation Zrotation
			JOINT mixamorig:RightFoot
			{
				OFFSET 0.595024 -83.218193 -6.561200
				CHANNELS 3 Xrotation Yrotation Zrotation
				JOINT mixamorig:RightToeBase
				{
					OFFSET -0.753601 -20.807106 25.115000
					CHANNELS 3 Xrotation Yrotation Zrotation
					JOINT mixamorig:RightToe_End
					{
						OFFSET 0.000299 0.001700 19.918200
						CHANNELS 3 Xrotation Yrotation Zrotation
						End Site
						{
							OFFSET 0.000000 19.918203 0.000000
						}
					}
				}
			}
		}
	}
}
MOTION
Frames: 4
Frame Time: 0.033333
-0.326644 118.085327 -1.097260 2.851027 0.206682 -0.370508 33.051859 -0.030693 -8.392931 8.342937 0.091077 2.013979 8.335915 0.346774 1.997097 -8.345211 -0.258546 -0.179217 -32.489308 -1.473433 -0.240467 0.000001 0.000000 0.000000 0.000001 0.000000 0.000000 0.000001 0.000000 0.000000 0.225919 5.889693 -5.227417 -20.036508 -52.634128 -58.520439 -0.000008 -65.708769 -0.000029 28.191722 -3.104519 -10.569556 0.301770 2.019907 -16.992519 0.189840 1.608758 -13.457727 0.107065 1.211965 -10.096461 -0.000000 0.000001 -0.000000 -0.705005 11.045293 15.819417 -0.175081 13.377064 9.387222 -5.159915 6.577241 13.043634 0.000000 -0.000001 0.000002 0.113203 1.245862 -10.381822 0.048339 0.816041 -6.778294 0.013569 0.433352 -3.593389 -0.000000 0.000002 0.000001 0.667247 2.961784 -25.386618 0.486470 2.546553 -21.625456 0.347843 2.164839 -18.254580 -0.000003 0.000001 0.000002 3.236925 7.123555 -32.006331 0.809410 -0.834933 -28.297713 0.638702 2.900962 -24.828830 0.000000 -0.000000 -0.000003 0.143642 2.231899 -0.000188 -41.000512 35.431237 69.119882 -0.000009 51.578990 -0.000005 46.232536 2.458734 7.769913 0.623882 -2.883459 24.412524 0.424458 -2.396485 20.085122 0.268527 -1.917280 15.943261 0.000002 -0.000000 -0.000002 1.463281 -15.850019 -8.246343 2.788907 -9.941903 0.929058 -4.240686 -8.539873 -4.701553 -0.000001 -0.000001 0.000003 0.434535 -2.423861 20.324667 0.344654 -2.165974 18.080349 0.202530 -1.669242 13.835058 0.000002 0.000001 -0.000000 0.916135 -3.454839 29.694985 0.523442 -2.651314 22.332407 0.364000 -2.224321 18.585404 0.000001 -0.000000 0.000003 1.202590 -3.913716 34.151130 0.590406 -2.808650 23.738488 0.454793 -2.477789 20.798344 -0.000001 0.000001 0.000002 -90.327517 -0.166706 27.521399 110.425144 -4.017410 -7.117200 -22.707524 -1.960805 7.124045 -5.268878 -0.000013 0.000001 -0.000000 -0.000001 -0.000000 -96.075729 3.296085 -21.851812 87.247552 -5.073617 3.708602 7.278812 0.082449 -2.127317 -4.527408 0.000028 -0.000001 -0.000000 -0.000002 -0.000000 
-0.324967 118.081024 -1.098188 2.876005 0.210170 -0.410110 32.948385 -0.029972 -8.365105 8.358332 0.090503 2.009097 8.351383 0.345327 1.992231 -8.303566 -0.253180 -0.182842 -32.435305 -1.488419 -0.185068 -0.000000 0.000000 -0.000000 -0.000000 0.000000 -0.000000 -0.000000 0.000000 -0.000000 0.220836 5.837575 -5.139772 -20.078564 -52.527877 -58.647720 -0.000010 -65.672276 -0.000017 28.260065 -3.116437 -10.551550 0.298927 2.010543 -16.911550 0.189729 1.608379 -13.454368 0.107646 1.215168 -10.123408 -0.000000 0.000000 0.000002 -0.702436 11.042588 15.813549 -0.175083 13.377065 9.387216 -5.160985 6.574594 13.043909 0.000001 0.000001 -0.000001 0.109727 1.226851 -10.221941 0.048341 0.816045 -6.778295 0.013956 0.438853 -3.639075 -0.000001 -0.000001 -0.000001 0.668100 2.963556 -25.403169 0.486268 2.546098 -21.621153 0.347913 2.165062 -18.256466 0.000001 -0.000002 0.000001 3.248874 7.129634 -32.102579 0.809008 -0.835649 -28.291096 0.637838 2.899089 -24.811569 -0.000001 -0.000001 -0.000001 0.159885 2.413609 -0.000409 -40.886052 35.316449 68.969167 0.000014 51.599562 -0.000041 46.225054 2.466570 7.791993 0.623926 -2.883525 24.413345 0.424477 -2.396498 20.085133 0.268461 -1.917050 15.941395 0.000002 0.000001 -0.000000 1.459423 -15.855586 -8.256112 2.788906 -9.941903 0.929055 -4.241773 -8.538069 -4.701748 -0.000001 -0.000001 0.000005 0.434663 -2.424168 20.327686 0.344665 -2.166005 18.080366 0.202445 -1.668861 13.831998 -0.000001 0.000000 0.000001 0.916020 -3.454618 29.693062 0.523441 -2.651324 22.332401 0.363978 -2.224252 18.584979 -0.000002 -0.000001 -0.000001 1.202326 -3.913285 34.146991 0.590414 -2.808653 23.738481 0.454833 -2.477863 20.799082 -0.000001 -0.000001 0.000003 -90.369215 -0.204005 27.530836 110.431987 -4.028922 -7.113843 -22.699396 -1.962634 7.134441 -5.253622 0.000004 0.000000 -0.000000 0.000000 -0.000000 -96.086732 3.276818 -21.845108 87.242532 -5.086613 3.723325 7.280506 0.082368 -2.119239 -4.524703 -0.000014 -0.000001 -0.000000 0.000001 0.000000 
-0.322162 118.078384 -1.104203 2.885629 0.222851 -0.450810 32.902015 -0.038750 -8.331986 8.365905 0.088607 2.009607 8.359095 0.342925 1.992652 -8.296323 -0.255052 -0.182220 -32.479165 -1.484135 -0.204056 0.000000 0.000000 -0.000000 0.000000 0.000000 -0.000000 0.000000 0.000000 -0.000000 0.221688 5.899536 -5.180552 -20.077399 -52.566905 -58.641313 0.000016 -65.656409 0.000018 28.302185 -3.119080 -10.550828 0.298407 2.008809 -16.896466 0.189689 1.608247 -13.453250 0.107873 1.216467 -10.134403 -0.000000 -0.000000 -0.000002 -0.697726 11.036554 15.802585 -0.175081 13.377066 9.387221 -5.161786 6.572495 13.044127 0.000001 0.000000 0.000001 0.107804 1.216110 -10.131337 0.048337 0.816040 -6.778294 0.014104 0.440948 -3.656331 -0.000001 -0.000003 -0.000000 0.672194 2.972121 -25.481937 0.486219 2.546016 -21.620484 0.348011 2.165328 -18.258574 -0.000003 0.000001 0.000001 3.268312 7.139469 -32.259093 0.808853 -0.835948 -28.288246 0.637654 2.898709 -24.808167 -0.000002 -0.000000 0.000003 0.161989 2.452825 -0.000401 -40.894320 35.321832 68.954605 0.000020 51.551724 -0.000026 46.234322 2.519611 7.798120 0.624193 -2.884107 24.418510 0.424488 -2.396517 20.085211 0.268369 -1.916761 15.938940 0.000002 0.000001 -0.000000 1.451069 -15.871031 -8.279016 2.788906 -9.941900 0.929057 -4.245559 -8.531609 -4.702452 0.000001 -0.000001 -0.000000 0.434724 -2.424343 20.329136 0.344664 -2.165982 18.080378 0.202334 -1.668417 13.828204 -0.000000 0.000000 0.000001 0.916596 -3.455643 29.702853 0.523462 -2.651330 22.332538 0.363946 -2.224185 18.584195 -0.000001 -0.000000 0.000002 1.203270 -3.914669 34.160638 0.590400 -2.808632 23.738462 0.454864 -2.477961 20.799736 0.000002 0.000000 -0.000004 -90.397656 -0.237291 27.535424 110.435949 -4.042541 -7.109987 -22.688459 -1.965565 7.150467 -5.237711 -0.000012 -0.000002 -0.000000 -0.000001 -0.000000 -96.079609 3.262116 -21.835058 87.237095 -5.110311 3.729559 7.282365 0.082573 -2.097900 -4.524915 0.000001 0.000004 -0.000000 -0.000002 0.000000 
-0.318239 118.075989 -1.110192 2.869780 0.248541 -0.492861 32.888484 -0.042120 -8.317275 8.372181 0.087794 2.008982 8.365415 0.341898 1.991977 -8.296164 -0.248933 -0.185558 -32.534377 -1.508402 -0.130513 0.000001 0.000000 0.000000 0.000001 0.000000 0.000000 0.000001 0.000000 0.000000 0.213747 6.025793 -5.144115 -20.220977 -52.667906 -58.813202 0.000029 -65.590464 0.000033 28.336846 -3.148713 -10.545051 0.301152 2.017764 -16.974277 0.189735 1.608422 -13.454846 0.107603 1.214807 -10.120341 0.000001 -0.000000 0.000001 -0.695753 11.038563 15.799493 -0.175083 13.377060 9.387221 -5.160007 6.577004 13.043645 -0.000003 0.000001 0.000000 0.108565 1.220285 -10.166696 0.048340 0.816043 -6.778292 0.013872 0.438031 -3.632100 0.000000 0.000001 -0.000000 0.678995 2.986379 -25.613244 0.486366 2.546328 -21.623312 0.347963 2.165172 -18.257519 -0.000002 0.000003 0.000001 3.290319 7.150507 -32.436063 0.808905 -0.835855 -28.289281 0.638230 2.899952 -24.819335 0.000001 0.000001 0.000003 0.164396 2.447713 -0.000516 -40.947807 35.356310 68.972691 0.000037 51.491734 -0.000034 46.206073 2.565247 7.795678 0.624588 -2.884990 24.426493 0.424461 -2.396522 20.085365 0.268292 -1.916503 15.936641 -0.000002 0.000001 -0.000002 1.445679 -15.890625 -8.299076 2.788908 -9.941900 0.929060 -4.250847 -8.522556 -4.703395 0.000000 -0.000001 0.000004 0.434742 -2.424398 20.329676 0.344680 -2.165976 18.080359 0.202252 -1.668026 13.824960 0.000002 -0.000001 -0.000002 0.917654 -3.457459 29.720202 0.523458 -2.651341 22.332833 0.363908 -2.224072 18.583104 0.000001 0.000000 -0.000001 1.204957 -3.917145 34.185626 0.590414 -2.808633 23.738473 0.454846 -2.477956 20.799838 -0.000001 -0.000000 -0.000002 -90.401768 -0.268179 27.528432 110.441256 -4.055444 -7.103072 -22.679156 -1.968697 7.167285 -5.223461 -0.000013 -0.000002 0.000000 0.000002 -0.000000 -96.044570 3.254972 -21.820064 87.238707 -5.149700 3.722436 7.279444 0.083254 -2.055886 -4.526107 -0.000008 0.000000 -0.000000 -0.000001 -0.000000 
